<?xml version="1.0" standalone="no"?>
<!DOCTYPE svg PUBLIC "-//W3C//DTD SVG 20010904//EN"
 "http://www.w3.org/TR/2001/REC-SVG-20010904/DTD/svg10.dtd">
<svg version="1.0" xmlns="http://www.w3.org/2000/svg"
 width="512.000000pt" height="512.000000pt" viewBox="0 0 512.000000 512.000000"
 preserveAspectRatio="xMidYMid meet">
<metadata>
Created by potrace 1.16, written by Peter Selinger 2001-2019
</metadata>
<g transform="translate(0.000000,512.000000) scale(0.100000,-0.100000)"
fill="#000000" stroke="none">
<path d="M2395 4250 c-741 -63 -1566 -587 -2280 -1450 -96 -116 -115 -155
-115 -240 0 -89 18 -121 147 -275 243 -288 577 -609 838 -805 786 -590 1504
-752 2235 -503 608 206 1233 677 1785 1343 96 116 115 155 115 240 0 85 -19
124 -116 240 -551 667 -1176 1137 -1784 1343 -276 94 -552 130 -825 107z m435
-713 c295 -88 512 -272 641 -542 64 -132 89 -239 96 -395 4 -103 1 -143 -17
-230 -92 -445 -448 -768 -893 -808 -305 -28 -594 77 -811 293 -349 349 -391
893 -101 1300 116 163 301 300 496 365 121 41 185 50 349 46 130 -3 169 -8
240 -29z"/>
<path d="M2470 3069 c-80 -14 -187 -68 -253 -129 -288 -264 -186 -736 187
-863 270 -92 580 78 653 358 11 43 14 89 11 162 -4 93 -8 108 -45 185 -101
209 -326 326 -553 287z"/>
</g>
</svg>
